<svg width="177" height="61" viewBox="0 0 177 61" fill="none" xmlns="http://www.w3.org/2000/svg">
<path d="M0.5 17H9.5V48H13.75V17H22.75V13H0.5V17ZM20.0117 36.5C20.0117 38.8 20.5284 40.8667 21.5617 42.7C22.6284 44.5 24.0617 45.9167 25.8617 46.95C27.6617 47.9833 29.6784 48.5 31.9117 48.5C34.1784 48.5 36.1951 47.9833 37.9617 46.95C39.7617 45.9167 41.1784 44.5 42.2117 42.7C43.2784 40.8667 43.8117 38.8 43.8117 36.5C43.8117 34.1667 43.2784 32.1 42.2117 30.3C41.1784 28.5 39.7617 27.0833 37.9617 26.05C36.1951 25.0167 34.1784 24.5 31.9117 24.5C29.6784 24.5 27.6617 25.0167 25.8617 26.05C24.0617 27.0833 22.6284 28.5 21.5617 30.3C20.5284 32.1 20.0117 34.1667 20.0117 36.5ZM24.0617 36.5C24.0617 34.9 24.3951 33.4833 25.0617 32.25C25.7617 30.9833 26.6951 30 27.8617 29.3C29.0617 28.6 30.4117 28.25 31.9117 28.25C33.4117 28.25 34.7451 28.6 35.9117 29.3C37.1117 30 38.0451 30.9833 38.7117 32.25C39.4117 33.4833 39.7617 34.9 39.7617 36.5C39.7617 38.1 39.4117 39.5167 38.7117 40.75C38.0451 41.9833 37.1117 42.9667 35.9117 43.7C34.7451 44.4 33.4117 44.75 31.9117 44.75C30.4117 44.75 29.0617 44.4 27.8617 43.7C26.6951 42.9667 25.7617 41.9833 25.0617 40.75C24.3951 39.5167 24.0617 38.1 24.0617 36.5ZM53.0566 59V25H49.0566V59H53.0566ZM72.3066 36.5C72.3066 34 71.79 31.8667 70.7566 30.1C69.7233 28.3 68.34 26.9167 66.6066 25.95C64.9066 24.9833 63.0066 24.5 60.9066 24.5C59.0066 24.5 57.3233 24.9833 55.8566 25.95C54.4233 26.9167 53.29 28.3 52.4566 30.1C51.6566 31.8667 51.2566 34 51.2566 36.5C51.2566 38.9667 51.6566 41.1 52.4566 42.9C53.29 44.7 54.4233 46.0833 55.8566 47.05C57.3233 48.0167 59.0066 48.5 60.9066 48.5C63.0066 48.5 64.9066 48.0167 66.6066 47.05C68.34 46.0833 69.7233 44.7 70.7566 42.9C71.79 41.1 72.3066 38.9667 72.3066 36.5ZM68.2566 36.5C68.2566 38.2667 67.89 39.7667 67.1566 41C66.4566 42.2333 65.5066 43.1667 64.3066 43.8C63.14 44.4333 61.84 44.75 60.4066 44.75C59.24 44.75 58.09 44.4333 56.9566 43.8C55.8233 43.1667 54.89 42.2333 54.1566 41C53.4233 39.7667 53.0566 38.2667 53.0566 36.5C53.0566 34.7333 53.4233 33.2333 54.1566 32C54.89 30.7667 55.8233 29.8333 56.9566 29.2C58.09 28.5667 59.24 28.25 60.4066 28.25C61.84 28.25 63.14 28.5667 64.3066 29.2C65.5066 29.8333 66.4566 30.7667 67.1566 32C67.89 33.2333 68.2566 34.7333 68.2566 36.5ZM94.3223 34.25H105.972C105.672 35.6167 105.189 36.9 104.522 38.1C103.889 39.3 103.072 40.3667 102.072 41.3C101.072 42.2333 99.8723 42.9667 98.4723 43.5C97.1056 44 95.5556 44.25 93.8223 44.25C91.3556 44.25 89.1223 43.6667 87.1223 42.5C85.1223 41.3333 83.5223 39.7167 82.3223 37.65C81.1556 35.5833 80.5723 33.2 80.5723 30.5C80.5723 27.7667 81.1556 25.3833 82.3223 23.35C83.5223 21.2833 85.1223 19.6667 87.1223 18.5C89.1223 17.3333 91.3556 16.75 93.8223 16.75C96.4889 16.75 98.8056 17.2833 100.772 18.35C102.739 19.3833 104.272 20.8333 105.372 22.7L108.372 19.95C107.372 18.3167 106.139 16.95 104.672 15.85C103.239 14.75 101.606 13.9167 99.7723 13.35C97.9723 12.7833 95.9889 12.5 93.8223 12.5C91.2889 12.5 88.9389 12.95 86.7723 13.85C84.6056 14.7167 82.7223 15.9667 81.1223 17.6C79.5223 19.2 78.2723 21.1 77.3723 23.3C76.5056 25.5 76.0723 27.9 76.0723 30.5C76.0723 33.1 76.5056 35.5 77.3723 37.7C78.2723 39.9 79.5223 41.8167 81.1223 43.45C82.7223 45.05 84.6056 46.3 86.7723 47.2C88.9389 48.0667 91.2889 48.5 93.8223 48.5C96.4889 48.5 98.8556 48.0167 100.922 47.05C103.022 46.05 104.789 44.7 106.222 43C107.656 41.3 108.739 39.3667 109.472 37.2C110.206 35 110.572 32.6833 110.572 30.25H94.3223V34.25ZM118.392 40.9C118.392 40.0667 118.592 39.35 118.992 38.75C119.392 38.15 119.992 37.6833 120.792 37.35C121.625 37.0167 122.692 36.85 123.992 36.85C125.392 36.85 126.708 37.0333 127.942 37.4C129.175 37.7333 130.375 38.3 131.542 39.1V36.75C131.308 36.45 130.858 36.0667 130.192 35.6C129.525 35.1 128.625 34.6667 127.492 34.3C126.392 33.9 125.008 33.7 123.342 33.7C120.508 33.7 118.292 34.3833 116.692 35.75C115.125 37.0833 114.342 38.8667 114.342 41.1C114.342 42.6667 114.708 44 115.442 45.1C116.175 46.2 117.142 47.05 118.342 47.65C119.575 48.2167 120.892 48.5 122.292 48.5C123.558 48.5 124.825 48.2667 126.092 47.8C127.392 47.3333 128.475 46.6167 129.342 45.65C130.242 44.6833 130.692 43.4667 130.692 42L129.892 39C129.892 40.2 129.592 41.2667 128.992 42.2C128.425 43.1 127.642 43.8 126.642 44.3C125.675 44.8 124.575 45.05 123.342 45.05C122.375 45.05 121.508 44.9 120.742 44.6C120.008 44.2667 119.425 43.7833 118.992 43.15C118.592 42.5167 118.392 41.7667 118.392 40.9ZM117.792 30.3C118.158 30.0333 118.658 29.7167 119.292 29.35C119.925 28.9833 120.692 28.6667 121.592 28.4C122.525 28.1333 123.558 28 124.692 28C125.392 28 126.058 28.0667 126.692 28.2C127.325 28.3333 127.875 28.55 128.342 28.85C128.842 29.15 129.225 29.5667 129.492 30.1C129.758 30.6 129.892 31.25 129.892 32.05V48H133.892V31.5C133.892 30 133.508 28.7333 132.742 27.7C132.008 26.6667 130.958 25.8833 129.592 25.35C128.258 24.7833 126.692 24.5 124.892 24.5C122.758 24.5 120.925 24.8167 119.392 25.45C117.892 26.0833 116.708 26.7167 115.842 27.35L117.792 30.3ZM140.664 15.5C140.664 16.2333 140.931 16.8833 141.464 17.45C142.031 17.9833 142.681 18.25 143.414 18.25C144.181 18.25 144.831 17.9833 145.364 17.45C145.897 16.8833 146.164 16.2333 146.164 15.5C146.164 14.7333 145.897 14.0833 145.364 13.55C144.831 13.0167 144.181 12.75 143.414 12.75C142.681 12.75 142.031 13.0167 141.464 13.55C140.931 14.0833 140.664 14.7333 140.664 15.5ZM141.414 25V48H145.414V25H141.414ZM168.402 34V48H172.402V33.5C172.402 30.7333 171.686 28.55 170.252 26.95C168.852 25.3167 166.936 24.5 164.502 24.5C163.002 24.5 161.669 24.8333 160.502 25.5C159.369 26.1667 158.419 27.2 157.652 28.6V25H153.652V48H157.652V34C157.652 32.8667 157.886 31.8667 158.352 31C158.852 30.1333 159.536 29.4667 160.402 29C161.302 28.5 162.336 28.25 163.502 28.25C165.102 28.25 166.319 28.7333 167.152 29.7C167.986 30.6667 168.402 32.1 168.402 34Z" fill="white"/>
<path d="M144 9L151.794 22.5H136.206L144 9Z" fill="#00A023"/>
<circle cx="31.5" cy="36.5" r="10.5" fill="white"/>
<path d="M25 32.3924L38.8564 32.3924L31.9282 44.3924L25 32.3924Z" fill="#DC4242"/>
</svg>
