<svg width="209" height="72" viewBox="0 0 209 72" fill="none" xmlns="http://www.w3.org/2000/svg">
<path d="M0.3 24.45H9.7V53H16.85V24.45H26.3V18H0.3V24.45Z" fill="#4F54FE"/>
<path d="M28.2125 41.5C28.2125 43.8667 28.7625 45.9667 29.8625 47.8C30.9958 49.6 32.5125 51 34.4125 52C36.3458 53 38.5292 53.5 40.9625 53.5C43.3958 53.5 45.5625 53 47.4625 52C49.3958 51 50.9125 49.6 52.0125 47.8C53.1458 45.9667 53.7125 43.8667 53.7125 41.5C53.7125 39.1 53.1458 37 52.0125 35.2C50.9125 33.4 49.3958 32 47.4625 31C45.5625 30 43.3958 29.5 40.9625 29.5C38.5292 29.5 36.3458 30 34.4125 31C32.5125 32 30.9958 33.4 29.8625 35.2C28.7625 37 28.2125 39.1 28.2125 41.5ZM34.8125 41.5C34.8125 40.2 35.0792 39.05 35.6125 38.05C36.1792 37.05 36.9292 36.2833 37.8625 35.75C38.7958 35.2167 39.8292 34.95 40.9625 34.95C42.0958 34.95 43.1292 35.2167 44.0625 35.75C44.9958 36.2833 45.7292 37.05 46.2625 38.05C46.8292 39.05 47.1125 40.2 47.1125 41.5C47.1125 42.8 46.8292 43.95 46.2625 44.95C45.7292 45.9167 44.9958 46.6833 44.0625 47.25C43.1292 47.7833 42.0958 48.05 40.9625 48.05C39.8292 48.05 38.7958 47.7833 37.8625 47.25C36.9292 46.6833 36.1792 45.9167 35.6125 44.95C35.0792 43.95 34.8125 42.8 34.8125 41.5ZM64.9211 64V30H58.4211V64H64.9211ZM83.8211 41.5C83.8211 38.8667 83.3044 36.65 82.2711 34.85C81.2378 33.0167 79.8711 31.6333 78.1711 30.7C76.5044 29.7667 74.7044 29.3 72.7711 29.3C70.8044 29.3 69.0878 29.8 67.6211 30.8C66.1878 31.8 65.0711 33.2167 64.2711 35.05C63.5044 36.85 63.1211 39 63.1211 41.5C63.1211 43.9667 63.5044 46.1167 64.2711 47.95C65.0711 49.7833 66.1878 51.2 67.6211 52.2C69.0878 53.2 70.8044 53.7 72.7711 53.7C74.7044 53.7 76.5044 53.2333 78.1711 52.3C79.8711 51.3667 81.2378 49.9833 82.2711 48.15C83.3044 46.3167 83.8211 44.1 83.8211 41.5ZM77.1211 41.5C77.1211 42.8667 76.8378 44.0333 76.2711 45C75.7044 45.9667 74.9378 46.7 73.9711 47.2C73.0378 47.7 72.0044 47.95 70.8711 47.95C69.9044 47.95 68.9544 47.7167 68.0211 47.25C67.1211 46.75 66.3711 46.0167 65.7711 45.05C65.2044 44.0833 64.9211 42.9 64.9211 41.5C64.9211 40.1 65.2044 38.9167 65.7711 37.95C66.3711 36.9833 67.1211 36.2667 68.0211 35.8C68.9544 35.3 69.9044 35.05 70.8711 35.05C72.0044 35.05 73.0378 35.3 73.9711 35.8C74.9378 36.3 75.7044 37.0333 76.2711 38C76.8378 38.9667 77.1211 40.1333 77.1211 41.5ZM121.239 40H131.289C130.989 41.0667 130.556 42.05 129.989 42.95C129.423 43.85 128.723 44.65 127.889 45.35C127.089 46.05 126.123 46.6 124.989 47C123.856 47.3667 122.573 47.55 121.139 47.55C118.973 47.55 117.023 47.05 115.289 46.05C113.589 45.05 112.239 43.65 111.239 41.85C110.239 40.0167 109.739 37.9 109.739 35.5C109.739 33.0667 110.239 30.9667 111.239 29.2C112.273 27.4333 113.656 26.0833 115.389 25.15C117.123 24.1833 119.039 23.7 121.139 23.7C123.373 23.7 125.256 24.1833 126.789 25.15C128.356 26.0833 129.573 27.3167 130.439 28.85L136.539 25.3C135.473 23.6667 134.189 22.2667 132.689 21.1C131.223 19.9 129.523 18.9667 127.589 18.3C125.689 17.6333 123.539 17.3 121.139 17.3C118.439 17.3 115.939 17.7333 113.639 18.6C111.339 19.4667 109.339 20.7 107.639 22.3C105.939 23.9 104.606 25.8333 103.639 28.1C102.706 30.3333 102.239 32.8 102.239 35.5C102.239 38.2 102.689 40.6833 103.589 42.95C104.523 45.2167 105.823 47.1667 107.489 48.8C109.189 50.4333 111.173 51.7 113.439 52.6C115.739 53.5 118.239 53.95 120.939 53.95C123.806 53.95 126.356 53.4333 128.589 52.4C130.823 51.3667 132.689 49.95 134.189 48.15C135.723 46.3167 136.839 44.2167 137.539 41.85C138.273 39.4833 138.589 36.9667 138.489 34.3H121.239V40ZM148.327 45.85C148.327 45.1833 148.477 44.6333 148.777 44.2C149.077 43.7333 149.544 43.3833 150.177 43.15C150.811 42.8833 151.627 42.75 152.627 42.75C153.861 42.75 155.027 42.9167 156.127 43.25C157.261 43.5833 158.277 44.0833 159.177 44.75V41.75C158.844 41.35 158.294 40.9333 157.527 40.5C156.761 40.0667 155.811 39.7 154.677 39.4C153.577 39.1 152.294 38.95 150.827 38.95C147.961 38.95 145.744 39.6 144.177 40.9C142.611 42.2 141.827 43.9667 141.827 46.2C141.827 47.7667 142.194 49.1 142.927 50.2C143.694 51.2667 144.694 52.0833 145.927 52.65C147.161 53.2167 148.494 53.5 149.927 53.5C151.327 53.5 152.661 53.25 153.927 52.75C155.227 52.25 156.277 51.5 157.077 50.5C157.911 49.5 158.327 48.2667 158.327 46.8L157.527 43.8C157.527 44.9 157.277 45.85 156.777 46.65C156.277 47.4167 155.627 48.0167 154.827 48.45C154.027 48.85 153.127 49.05 152.127 49.05C151.427 49.05 150.777 48.9333 150.177 48.7C149.611 48.4333 149.161 48.0667 148.827 47.6C148.494 47.1 148.327 46.5167 148.327 45.85ZM145.827 36.5C146.161 36.2667 146.677 35.9833 147.377 35.65C148.077 35.3167 148.911 35.0333 149.877 34.8C150.844 34.5667 151.861 34.45 152.927 34.45C153.627 34.45 154.261 34.5167 154.827 34.65C155.394 34.7833 155.877 35 156.277 35.3C156.711 35.6 157.027 35.9833 157.227 36.45C157.427 36.8833 157.527 37.4167 157.527 38.05V53H163.777V36.7C163.777 35.1333 163.344 33.8167 162.477 32.75C161.611 31.65 160.411 30.8167 158.877 30.25C157.344 29.6833 155.594 29.4 153.627 29.4C151.494 29.4 149.561 29.7 147.827 30.3C146.094 30.8667 144.627 31.4667 143.427 32.1L145.827 36.5ZM169.502 21.1C169.502 22.1333 169.885 23 170.652 23.7C171.418 24.4 172.335 24.75 173.402 24.75C174.468 24.75 175.368 24.4 176.102 23.7C176.868 23 177.252 22.1333 177.252 21.1C177.252 20.0333 176.868 19.1667 176.102 18.5C175.368 17.8 174.468 17.45 173.402 17.45C172.335 17.45 171.418 17.8 170.652 18.5C169.885 19.1667 169.502 20.0333 169.502 21.1ZM170.202 30V53H176.502V30H170.202ZM198.226 39V53H204.926V38.3C204.926 35.5333 204.259 33.3833 202.926 31.85C201.592 30.2833 199.559 29.5 196.826 29.5C195.192 29.5 193.792 29.85 192.626 30.55C191.492 31.2167 190.576 32.2 189.876 33.5V30H183.376V53H189.876V39C189.876 38.0333 190.059 37.2 190.426 36.5C190.792 35.8 191.326 35.2667 192.026 34.9C192.726 34.5 193.526 34.3 194.426 34.3C195.759 34.3 196.726 34.7 197.326 35.5C197.926 36.3 198.226 37.4667 198.226 39Z" fill="black"/>
<circle cx="173" cy="22" r="5" fill="#4F54FE"/>
</svg>
